<svg
	width="900"
	height="240"
	viewBox="0 0 900 240"
	xmlns="http://www.w3.org/2000/svg"
	fill="none"
>
	<defs>
		<linearGradient id="grad" x1="0%" y1="0%" x2="100%" y2="0%">
			<stop offset="0%" stop-color="#A855F7" />
			<stop offset="50%" stop-color="#6366F1" />
			<stop offset="100%" stop-color="#22D3EE" />
		</linearGradient>
		<clipPath id="bookClip">
			<path d="M10 20 C30 10 60 10 80 20 V100 C60 90 30 90 10 100 Z" />
			<path d="M80 20 C100 10 130 10 150 20 V100 C130 90 100 90 80 100 Z" />
		</clipPath>
	</defs>

	<g
		transform="translate(40,60)"
		stroke="url(#grad)"
		stroke-linecap="butt"
		stroke-linejoin="miter"
	>
		<path
			d="M10 20 C30 10 60 10 80 20 V100 C60 90 30 90 10 100 Z"
			stroke-width="6"
			fill="none"
		/>
		<path
			d="M80 20 C100 10 130 10 150 20 V100 C130 90 100 90 80 100 Z"
			stroke-width="6"
			fill="none"
		/>
		<path d="M20 108 Q80 115 140 108" stroke-width="6" fill="none" />

		<g clip-path="url(#bookClip)">
			<polyline
				points="
					20,60
					32,48
					44,72
					56,40
					68,80
					80,38
					92,74
					104,46
					116,66
					128,54
					140,60
				"
				stroke-width="5"
				fill="none"
			/>
		</g>
	</g>

	<text
		x="260"
		y="150"
		font-family="Poppins, Inter, Montserrat, Arial, sans-serif"
		font-size="96"
		font-weight="600"
		letter-spacing="2"
		fill="url(#grad)"
	>
		SOMLIVRO
	</text>
</svg>
