<?xml version="1.0" encoding="UTF-8"?>
<svg xmlns="http://www.w3.org/2000/svg" viewBox="0 0 512 512">
  <defs>
    <linearGradient id="g" x1="0" y1="0" x2="1" y2="1">
      <stop offset="0" stop-color="#111827"/>
      <stop offset="1" stop-color="#374151"/>
    </linearGradient>
  </defs>
  <rect x="48" y="64" width="416" height="384" rx="56" fill="url(#g)"/>
  <path d="M168 164c0-18.8 15.2-34 34-34h132c18.8 0 34 15.2 34 34v204c0 18.8-15.2 34-34 34H202c-18.8 0-34-15.2-34-34V164z" fill="#F9FAFB" opacity="0.96"/>
  <path d="M196 186h168M196 226h168M196 266h132" stroke="#111827" stroke-width="20" stroke-linecap="round" opacity="0.85"/>
  <path d="M154 172c0-22.1 17.9-40 40-40h8v280h-8c-22.1 0-40-17.9-40-40V172z" fill="#E5E7EB"/>
  <path d="M358 132h-8v280h8c22.1 0 40-17.9 40-40V172c0-22.1-17.9-40-40-40z" fill="#E5E7EB"/>
</svg>
