<svg
	xmlns="http://www.w3.org/2000/svg"
	viewBox="0 0 200 200"
	fill="none"
>
	<defs>
		<linearGradient id="grad" x1="0%" y1="0%" x2="100%" y2="0%">
			<stop offset="0%" stop-color="#A855F7" />
			<stop offset="50%" stop-color="#6366F1" />
			<stop offset="100%" stop-color="#22D3EE" />
		</linearGradient>
		<linearGradient id="bg" x1="0%" y1="0%" x2="100%" y2="100%">
			<stop offset="0%" stop-color="#A855F7" stop-opacity="0.16" />
			<stop offset="50%" stop-color="#6366F1" stop-opacity="0.12" />
			<stop offset="100%" stop-color="#22D3EE" stop-opacity="0.16" />
		</linearGradient>
		<clipPath id="bookClip">
			<path d="M10 20 C30 10 60 10 80 20 V100 C60 90 30 90 10 100 Z" />
			<path d="M80 20 C100 10 130 10 150 20 V100 C130 90 100 90 80 100 Z" />
		</clipPath>
	</defs>

	<rect x="10" y="10" width="180" height="180" rx="48" fill="url(#bg)" />

	<g
		transform="translate(25,45)"
		stroke="url(#grad)"
		stroke-linecap="butt"
		stroke-linejoin="miter"
	>
		<path
			d="M10 20 C30 10 60 10 80 20 V100 C60 90 30 90 10 100 Z"
			stroke-width="6"
		/>
		<path
			d="M80 20 C100 10 130 10 150 20 V100 C130 90 100 90 80 100 Z"
			stroke-width="6"
		/>
		<path d="M20 108 Q80 115 140 108" stroke-width="6" />

		<g clip-path="url(#bookClip)">
			<polyline
				points="
					20,60
					32,48
					44,72
					56,40
					68,80
					80,38
					92,74
					104,46
					116,66
					128,54
					140,60
				"
				stroke-width="5"
			/>
		</g>
	</g>
</svg>

